<?xml version="1.0" standalone="no"?><!DOCTYPE svg PUBLIC "-//W3C//DTD SVG 1.1//EN" "http://www.w3.org/Graphics/SVG/1.1/DTD/svg11.dtd"><svg width="500" height="500" version="1.1" xmlns="http://www.w3.org/2000/svg" xmlns:xlink="http://www.w3.org/1999/xlink"><defs xmlns="http://www.w3.org/1999/xhtml"><style type="text/css"><![CDATA[
.link { fill: rgb(122, 184, 204); stroke: rgb(122, 184, 204); stroke-width: 2px; }
.node circle { fill: rgb(255, 235, 205); stroke: rgb(255, 235, 205); stroke-width: 12px; }
text { font: bold 12px sans-serif; fill: crimson; pointer-events: none; }]]></style></defs><line class="link" x1="352.6045551395184" y1="109.60996535086905" x2="360.64698099933094" y2="185.9378883537225"/><line class="link" x1="352.6045551395184" y1="109.60996535086905" x2="276.99196904498825" y2="84.1786965429646"/><line class="link" x1="360.64698099933094" y1="185.9378883537225" x2="282.8400176965706" y2="211.76168476420364"/><line class="link" x1="293.39894862633605" y1="293.6640881228694" x2="294.2886344703865" y2="375.6144197072887"/><line class="link" x1="293.39894862633605" y1="293.6640881228694" x2="282.8400176965706" y2="211.76168476420364"/><line class="link" x1="294.2886344703865" y1="375.6144197072887" x2="372.5409163636957" y2="364.70402183338524"/><line class="link" x1="294.2886344703865" y1="375.6144197072887" x2="223.0876048551725" y2="413.71209778783805"/><line class="link" x1="294.2886344703865" y1="375.6144197072887" x2="219.6502317629413" y2="345.3789815219176"/><line class="link" x1="282.8400176965706" y1="211.76168476420364" x2="356.392625422852" y2="248.7720432660896"/><line class="link" x1="282.8400176965706" y1="211.76168476420364" x2="232.27428668832772" y2="147.62532196173515"/><line class="link" x1="282.8400176965706" y1="211.76168476420364" x2="206.51930090532335" y2="240.21787299907865"/><line class="link" x1="276.99196904498825" y1="84.1786965429646" x2="232.27428668832772" y2="147.62532196173515"/><line class="link" x1="223.0876048551725" y1="413.71209778783805" x2="149.37182134957348" y2="377.7623303810508"/><line class="link" x1="149.37182134957348" y1="377.7623303810508" x2="219.6502317629413" y2="345.3789815219176"/><line class="link" x1="232.27428668832772" y1="147.62532196173515" x2="154.7483626419008" y2="165.94476504759695"/><line class="link" x1="206.51930090532335" y1="240.21787299907865" x2="128.23757690544358" y2="243.4917774464117"/><line class="link" x1="128.23757690544358" y1="243.4917774464117" x2="154.7483626419008" y2="165.94476504759695"/><line class="link" x1="128.23757690544358" y1="243.4917774464117" x2="67.39333344240072" y2="198.6238458922624"/><g class="node" transform="translate(352.6045551395184,109.60996535086905)"><circle r="10"/><text dy=".2em" style="text-anchor: middle;">beeswax</text></g><g class="node" transform="translate(360.64698099933094,185.9378883537225)"><circle r="10"/><text dy=".2em" style="text-anchor: middle;">minerals</text></g><g class="node" transform="translate(276.99196904498825,84.1786965429646)"><circle r="10"/><text dy=".2em" style="text-anchor: middle;">water</text></g><g class="node" transform="translate(282.8400176965706,211.76168476420364)"><circle r="10"/><text dy=".2em" style="text-anchor: middle;">nectar</text></g><g class="node" transform="translate(293.39894862633605,293.6640881228694)"><circle r="10"/><text dy=".2em" style="text-anchor: middle;">bees</text></g><g class="node" transform="translate(294.2886344703865,375.6144197072887)"><circle r="8"/><text dy=".2em" style="text-anchor: middle;">figure 8</text></g><g class="node" transform="translate(372.5409163636957,364.70402183338524)"><circle r="8"/><text dy=".2em" style="text-anchor: middle;">sun</text></g><g class="node" transform="translate(223.0876048551725,413.71209778783805)"><circle r="8"/><text dy=".2em" style="text-anchor: middle;">shake</text></g><g class="node" transform="translate(219.6502317629413,345.3789815219176)"><circle r="8"/><text dy=".2em" style="text-anchor: middle;">abdomen</text></g><g class="node" transform="translate(356.392625422852,248.7720432660896)"><circle r="10"/><text dy=".2em" style="text-anchor: middle;">fruit trees</text></g><g class="node" transform="translate(232.27428668832772,147.62532196173515)"><circle r="10"/><text dy=".2em" style="text-anchor: middle;">evaporation</text></g><g class="node" transform="translate(206.51930090532335,240.21787299907865)"><circle r="8"/><text dy=".2em" style="text-anchor: middle;">hive</text></g><g class="node" transform="translate(149.37182134957348,377.7623303810508)"><circle r="8"/><text dy=".2em" style="text-anchor: middle;">distance</text></g><g class="node" transform="translate(154.7483626419008,165.94476504759695)"><circle r="10"/><text dy=".2em" style="text-anchor: middle;">dry</text></g><g class="node" transform="translate(128.23757690544358,243.4917774464117)"><circle r="10"/><text dy=".2em" style="text-anchor: middle;">house bees</text></g><g class="node" transform="translate(67.39333344240072,198.6238458922624)"><circle r="10"/><text dy=".2em" style="text-anchor: middle;">honey</text></g></svg>