<?xml version="1.0" standalone="no"?><!DOCTYPE svg PUBLIC "-//W3C//DTD SVG 1.1//EN" "http://www.w3.org/Graphics/SVG/1.1/DTD/svg11.dtd"><svg width="500" height="500" version="1.1" xmlns="http://www.w3.org/2000/svg" xmlns:xlink="http://www.w3.org/1999/xlink"><defs xmlns="http://www.w3.org/1999/xhtml"><style type="text/css"><![CDATA[
.link { fill: rgb(122, 184, 204); stroke: rgb(122, 184, 204); stroke-width: 2px; }
.node circle { fill: rgb(255, 235, 205); stroke: rgb(255, 235, 205); stroke-width: 12px; }
text { font: 12px sans-serif; pointer-events: none; }]]></style></defs><line class="link" x1="406.9900281193313" y1="200.53336674764398" x2="335.35983187564545" y2="230.4977128913264"/><line class="link" x1="406.9900281193313" y1="200.53336674764398" x2="361.16981121938665" y2="134.0971456047659"/><line class="link" x1="335.35983187564545" y1="230.4977128913264" x2="255.87345449028453" y2="221.50192890389795"/><line class="link" x1="220.62051514407003" y1="293.26471774859914" x2="264.5972775147207" y2="355.3251538362511"/><line class="link" x1="220.62051514407003" y1="293.26471774859914" x2="255.87345449028453" y2="221.50192890389795"/><line class="link" x1="264.5972775147207" y1="355.3251538362511" x2="338.66240707977124" y2="322.71991039557315"/><line class="link" x1="264.5972775147207" y1="355.3251538362511" x2="190.19559415182383" y2="387.10541816643354"/><line class="link" x1="264.5972775147207" y1="355.3251538362511" x2="331.76295365487425" y2="397.537305998934"/><line class="link" x1="255.87345449028453" y1="221.50192890389795" x2="185.9384219680496" y2="190.24860809329732"/><line class="link" x1="255.87345449028453" y1="221.50192890389795" x2="281.41123945751224" y2="142.84392757749407"/><line class="link" x1="255.87345449028453" y1="221.50192890389795" x2="169.78802573402402" y2="231.90826880298584"/><line class="link" x1="361.16981121938665" y1="134.0971456047659" x2="281.41123945751224" y2="142.84392757749407"/><line class="link" x1="190.19559415182383" y1="387.10541816643354" x2="257.91146470664654" y2="429.0947806189635"/><line class="link" x1="257.91146470664654" y1="429.0947806189635" x2="331.76295365487425" y2="397.537305998934"/><line class="link" x1="281.41123945751224" y1="142.84392757749407" x2="213.11952790087668" y2="100.08176732524792"/><line class="link" x1="169.78802573402402" y1="231.90826880298584" x2="145.5640957320843" y2="147.75595045864245"/><line class="link" x1="145.5640957320843" y1="147.75595045864245" x2="213.11952790087668" y2="100.08176732524792"/><line class="link" x1="145.5640957320843" y1="147.75595045864245" x2="80.16306213910845" y2="192.8982737392292"/><g class="node" transform="translate(406.9900281193313,200.53336674764398)"><circle r="10"/><text dy=".2em" style="text-anchor: middle;">beeswax</text></g><g class="node" transform="translate(335.35983187564545,230.4977128913264)"><circle r="10"/><text dy=".2em" style="text-anchor: middle;">minerals</text></g><g class="node" transform="translate(361.16981121938665,134.0971456047659)"><circle r="10"/><text dy=".2em" style="text-anchor: middle;">water</text></g><g class="node" transform="translate(255.87345449028453,221.50192890389795)"><circle r="10"/><text dy=".2em" style="text-anchor: middle;">nectar</text></g><g class="node" transform="translate(220.62051514407003,293.26471774859914)"><circle r="10"/><text dy=".2em" style="text-anchor: middle;">bees</text></g><g class="node" transform="translate(264.5972775147207,355.3251538362511)"><circle r="10"/><text dy=".2em" style="text-anchor: middle;">figure 8</text></g><g class="node" transform="translate(338.66240707977124,322.71991039557315)"><circle r="10"/><text dy=".2em" style="text-anchor: middle;">sun</text></g><g class="node" transform="translate(190.19559415182383,387.10541816643354)"><circle r="10"/><text dy=".2em" style="text-anchor: middle;">shake</text></g><g class="node" transform="translate(331.76295365487425,397.537305998934)"><circle r="8"/><text dy=".2em" style="text-anchor: middle;">abdomen</text></g><g class="node" transform="translate(185.9384219680496,190.24860809329732)"><circle r="10"/><text dy=".2em" style="text-anchor: middle;">fruit trees</text></g><g class="node" transform="translate(281.41123945751224,142.84392757749407)"><circle r="10"/><text dy=".2em" style="text-anchor: middle;">evaporation</text></g><g class="node" transform="translate(169.78802573402402,231.90826880298584)"><circle r="10"/><text dy=".2em" style="text-anchor: middle;">hive</text></g><g class="node" transform="translate(257.91146470664654,429.0947806189635)"><circle r="10"/><text dy=".2em" style="text-anchor: middle;">distance</text></g><g class="node" transform="translate(213.11952790087668,100.08176732524792)"><circle r="10"/><text dy=".2em" style="text-anchor: middle;">dry</text></g><g class="node" transform="translate(145.5640957320843,147.75595045864245)"><circle r="10"/><text dy=".2em" style="text-anchor: middle;">house bees</text></g><g class="node" transform="translate(80.16306213910845,192.8982737392292)"><circle r="10"/><text dy=".2em" style="text-anchor: middle;">honey</text></g></svg>